<svg width="50" height="50" viewBox="0 0 50 50" fill="none" xmlns="http://www.w3.org/2000/svg">
<rect width="50" height="50" rx="5" fill="#3884FC"/>
<path fill-rule="evenodd" clip-rule="evenodd" d="M25 11.5625C25.5178 11.5625 25.9375 11.9822 25.9375 12.5V14.0625H36.75C37.1976 14.0625 37.6268 14.2403 37.9432 14.5568C38.2597 14.8732 38.4375 15.3024 38.4375 15.75V31.75C38.4375 31.9716 38.3939 32.191 38.309 32.3958C38.2242 32.6005 38.0999 32.7865 37.9432 32.9432C37.7865 33.0999 37.6005 33.2242 37.3958 33.309C37.191 33.3939 36.9716 33.4375 36.75 33.4375H27.2633L30.0379 36.2121C30.404 36.5782 30.404 37.1718 30.0379 37.5379C29.6718 37.904 29.0782 37.904 28.7121 37.5379L25 33.8258L21.2879 37.5379C20.9218 37.904 20.3282 37.904 19.9621 37.5379C19.596 37.1718 19.596 36.5782 19.9621 36.2121L22.7367 33.4375H13.25C12.8024 33.4375 12.3732 33.2597 12.0568 32.9432C11.7403 32.6268 11.5625 32.1975 11.5625 31.75V15.75C11.5625 15.3024 11.7403 14.8732 12.0568 14.5568C12.3732 14.2403 12.8024 14.0625 13.25 14.0625H24.0625V12.5C24.0625 11.9822 24.4822 11.5625 25 11.5625ZM13.4375 15.9375V31.5625H36.5625V15.9375H13.4375ZM28.75 19.0625C29.2678 19.0625 29.6875 19.4822 29.6875 20V27.5C29.6875 28.0178 29.2678 28.4375 28.75 28.4375C28.2322 28.4375 27.8125 28.0178 27.8125 27.5V20C27.8125 19.4822 28.2322 19.0625 28.75 19.0625ZM25 21.5625C25.5178 21.5625 25.9375 21.9822 25.9375 22.5V27.5C25.9375 28.0178 25.5178 28.4375 25 28.4375C24.4822 28.4375 24.0625 28.0178 24.0625 27.5V22.5C24.0625 21.9822 24.4822 21.5625 25 21.5625ZM21.25 24.0625C21.7678 24.0625 22.1875 24.4822 22.1875 25V27.5C22.1875 28.0178 21.7678 28.4375 21.25 28.4375C20.7322 28.4375 20.3125 28.0178 20.3125 27.5V25C20.3125 24.4822 20.7322 24.0625 21.25 24.0625Z" fill="#F4F4F4"/>
</svg>
