<svg width="50" height="50" viewBox="0 0 50 50" fill="none" xmlns="http://www.w3.org/2000/svg">
<rect width="50" height="50" rx="5" fill="#3884FC"/>
<path fill-rule="evenodd" clip-rule="evenodd" d="M11.5625 25C11.5625 17.5785 17.5785 11.5625 25 11.5625C32.4215 11.5625 38.4375 17.5785 38.4375 25C38.4375 32.4215 32.4215 38.4375 25 38.4375C17.5785 38.4375 11.5625 32.4215 11.5625 25ZM25 13.4375C18.614 13.4375 13.4375 18.614 13.4375 25C13.4375 31.386 18.614 36.5625 25 36.5625C31.386 36.5625 36.5625 31.386 36.5625 25C36.5625 18.614 31.386 13.4375 25 13.4375Z" fill="#F4F4F4"/>
<path fill-rule="evenodd" clip-rule="evenodd" d="M25 15.9375C25.5178 15.9375 25.9375 16.3572 25.9375 16.875V18.289C27.2484 18.5085 28.5597 19.1089 29.4129 19.9621C29.779 20.3282 29.779 20.9218 29.4129 21.2879C29.0468 21.654 28.4532 21.654 28.0871 21.2879C27.4269 20.6277 26.1614 20.1055 24.9746 20.0734L24.9744 20.0734C24.2791 20.0544 23.7336 20.2077 23.3849 20.4719C23.0753 20.7065 22.8125 21.1079 22.8125 21.875C22.8125 22.1933 22.8832 22.4047 22.9754 22.559C23.0708 22.7189 23.221 22.8703 23.4525 23.0177C23.9531 23.3362 24.6601 23.5378 25.5592 23.783C25.5827 23.7895 25.6065 23.7959 25.6303 23.8024C26.4368 24.0221 27.4133 24.2881 28.1791 24.7755C28.592 25.0383 28.979 25.3849 29.2596 25.8549C29.5434 26.3304 29.6875 26.8808 29.6875 27.5C29.6875 28.8773 29.0791 29.9274 28.1328 30.5901C27.4893 31.0407 26.7221 31.292 25.9375 31.3862V33.125C25.9375 33.6428 25.5178 34.0625 25 34.0625C24.4822 34.0625 24.0625 33.6428 24.0625 33.125V31.3312C22.6966 31.0945 21.3361 30.429 20.4996 29.3119C20.1892 28.8975 20.2736 28.3099 20.6881 27.9996C21.1025 27.6892 21.6901 27.7736 22.0004 28.1881C22.5883 28.9731 23.7813 29.5075 25.0332 29.5518L25.0335 29.5519C25.8511 29.5811 26.5708 29.3949 27.0572 29.0543C27.5059 28.7401 27.8125 28.2614 27.8125 27.5C27.8125 27.1817 27.7417 26.9703 27.6496 26.816C27.5542 26.6561 27.404 26.5047 27.1725 26.3573C26.6719 26.0388 25.9649 25.8372 25.0658 25.592C25.0423 25.5855 25.0185 25.5791 24.9946 25.5726C24.1882 25.3529 23.2117 25.0869 22.4459 24.5995C22.0329 24.3367 21.646 23.9901 21.3654 23.5201C21.0816 23.0446 20.9375 22.4942 20.9375 21.875C20.9375 20.6046 21.4122 19.6141 22.2526 18.9774C22.7874 18.5723 23.4182 18.3497 24.0625 18.2541V16.875C24.0625 16.3572 24.4822 15.9375 25 15.9375ZM24.9668 31.4257C24.9667 31.4257 24.9666 31.4257 24.9664 31.4256L25 30.4888L24.9668 31.4257Z" fill="#F4F4F4"/>
</svg>
