<svg width="50" height="50" viewBox="0 0 50 50" fill="none" xmlns="http://www.w3.org/2000/svg">
<rect width="50" height="50" rx="5" fill="#3884FC"/>
<path fill-rule="evenodd" clip-rule="evenodd" d="M13.0871 13.0871C13.4532 12.721 14.0468 12.721 14.4129 13.0871L34.1383 32.8125H35C35.4144 32.8125 35.8118 32.6479 36.1049 32.3549C36.3979 32.0618 36.5625 31.6644 36.5625 31.25V22.1875H27.5C26.9822 22.1875 26.5625 21.7678 26.5625 21.25C26.5625 20.7322 26.9822 20.3125 27.5 20.3125H36.5625V18.75C36.5625 18.3356 36.3979 17.9382 36.1049 17.6451C35.8118 17.3521 35.4144 17.1875 35 17.1875H22.5C21.9822 17.1875 21.5625 16.7678 21.5625 16.25C21.5625 15.7322 21.9822 15.3125 22.5 15.3125H35C35.9117 15.3125 36.786 15.6747 37.4307 16.3193C38.0753 16.964 38.4375 17.8383 38.4375 18.75V31.25C38.4375 32.1617 38.0753 33.036 37.4307 33.6807C37.0016 34.1098 36.4707 34.4137 35.8948 34.569L36.9129 35.5871C37.279 35.9532 37.279 36.5468 36.9129 36.9129C36.5468 37.279 35.9532 37.279 35.5871 36.9129L33.3617 34.6875H15C14.0883 34.6875 13.214 34.3253 12.5693 33.6807C11.9247 33.036 11.5625 32.1617 11.5625 31.25V18.75C11.5625 17.8383 11.9247 16.964 12.5693 16.3193C12.9984 15.8902 13.5293 15.5863 14.1052 15.431L13.0871 14.4129C12.721 14.0468 12.721 13.4532 13.0871 13.0871ZM15.8617 17.1875H15C14.5856 17.1875 14.1882 17.3521 13.8951 17.6451C13.6021 17.9382 13.4375 18.3356 13.4375 18.75V31.25C13.4375 31.6644 13.6021 32.0618 13.8951 32.3549C14.1882 32.6479 14.5856 32.8125 15 32.8125H31.4867L20.8617 22.1875H17.5C16.9822 22.1875 16.5625 21.7678 16.5625 21.25C16.5625 20.7322 16.9822 20.3125 17.5 20.3125H18.9867L15.8617 17.1875Z" fill="#F4F4F4"/>
</svg>
