<svg width="50" height="50" viewBox="0 0 50 50" fill="none" xmlns="http://www.w3.org/2000/svg">
<rect width="50" height="50" rx="5" fill="#3884FC"/>
<path fill-rule="evenodd" clip-rule="evenodd" d="M18.75 11.5625C19.2678 11.5625 19.6875 11.9822 19.6875 12.5V17.5C19.6875 18.0178 19.2678 18.4375 18.75 18.4375C18.2322 18.4375 17.8125 18.0178 17.8125 17.5V15.9375H16.25C15.8356 15.9375 15.4382 16.1021 15.1451 16.3951C14.8521 16.6882 14.6875 17.0856 14.6875 17.5V21.5625H35.3125V17.5C35.3125 17.0856 35.1479 16.6882 34.8549 16.3951C34.5618 16.1021 34.1644 15.9375 33.75 15.9375H33.125C32.6072 15.9375 32.1875 15.5178 32.1875 15C32.1875 14.4822 32.6072 14.0625 33.125 14.0625H33.75C34.6617 14.0625 35.536 14.4247 36.1807 15.0693C36.8253 15.714 37.1875 16.5883 37.1875 17.5V26.25C37.1875 26.7678 36.7678 27.1875 36.25 27.1875C35.7322 27.1875 35.3125 26.7678 35.3125 26.25V23.4375H14.6875V33.75C14.6875 34.1644 14.8521 34.5618 15.1451 34.8549C15.4382 35.1479 15.8356 35.3125 16.25 35.3125H26.25C26.7678 35.3125 27.1875 35.7322 27.1875 36.25C27.1875 36.7678 26.7678 37.1875 26.25 37.1875H16.25C15.3383 37.1875 14.464 36.8253 13.8193 36.1807C13.1747 35.536 12.8125 34.6617 12.8125 33.75V17.5C12.8125 16.5883 13.1747 15.714 13.8193 15.0693C14.464 14.4247 15.3383 14.0625 16.25 14.0625H17.8125V12.5C17.8125 11.9822 18.2322 11.5625 18.75 11.5625ZM28.75 11.5625C29.2678 11.5625 29.6875 11.9822 29.6875 12.5V17.5C29.6875 18.0178 29.2678 18.4375 28.75 18.4375C28.2322 18.4375 27.8125 18.0178 27.8125 17.5V15.9375H23.125C22.6072 15.9375 22.1875 15.5178 22.1875 15C22.1875 14.4822 22.6072 14.0625 23.125 14.0625H27.8125V12.5C27.8125 11.9822 28.2322 11.5625 28.75 11.5625ZM32.49 27.8125C33.0078 27.8125 33.4275 28.2322 33.4275 28.75V31.5625H36.25C36.7678 31.5625 37.1875 31.9822 37.1875 32.5C37.1875 33.0178 36.7678 33.4375 36.25 33.4375H33.4275V36.25C33.4275 36.7678 33.0078 37.1875 32.49 37.1875C31.9722 37.1875 31.5525 36.7678 31.5525 36.25V33.4375H28.74C28.2222 33.4375 27.8025 33.0178 27.8025 32.5C27.8025 31.9822 28.2222 31.5625 28.74 31.5625H31.5525V28.75C31.5525 28.2322 31.9722 27.8125 32.49 27.8125Z" fill="#F4F4F4"/>
</svg>
