<svg width="30" height="30" viewBox="0 0 30 30" fill="none" xmlns="http://www.w3.org/2000/svg">
<path fill-rule="evenodd" clip-rule="evenodd" d="M14.6585 1.25C7.25769 1.25 1.25 7.25769 1.25 14.6585C1.25 17.2705 1.97557 19.7665 3.39768 21.9432L1.36609 26.4417C1.19196 26.848 1.25 27.3414 1.54023 27.6897C1.77241 27.9509 2.09166 28.096 2.43993 28.096C2.55602 28.096 2.64309 28.096 2.75918 28.067L8.38958 26.5288C10.3341 27.5736 12.5108 28.125 14.7165 28.125C22.1173 28.125 28.125 22.1173 28.125 14.7165C28.067 7.25769 22.0593 1.25 14.6585 1.25ZM14.6585 25.7451C12.6849 25.7451 10.7694 25.2227 9.08612 24.236C8.91199 24.1199 8.70883 24.0618 8.50567 24.0618C8.38958 24.0618 8.30251 24.0618 8.18642 24.0908L4.50054 25.1066L5.77754 22.2914C5.95167 21.9141 5.89363 21.4498 5.66145 21.1305C4.29738 19.2441 3.57181 17.0093 3.57181 14.6585C3.57181 8.56372 8.56372 3.57181 14.6585 3.57181C20.7532 3.57181 25.7451 8.53469 25.7451 14.6585C25.7451 20.7532 20.7823 25.7451 14.6585 25.7451Z" fill="#F4F4F4"/>
<path fill-rule="evenodd" clip-rule="evenodd" d="M19.8245 16.6609C19.2731 16.3126 18.5185 15.9354 17.88 16.2256C17.3866 16.4287 17.0383 17.2414 16.7191 17.6477C16.5449 17.8509 16.3418 17.8799 16.0806 17.7928C14.1651 17.0382 12.7139 15.7612 11.6691 14.0199C11.495 13.7587 11.524 13.5265 11.7272 13.2653C12.0464 12.888 12.4527 12.4526 12.5398 11.9592C12.6269 11.4659 12.3947 10.8564 12.1915 10.421C11.9303 9.84059 11.6401 9.02796 11.0596 8.70871C10.5372 8.41848 9.84068 8.56359 9.37632 8.96991C8.56368 9.63743 8.15737 10.6822 8.18639 11.698C8.18639 11.9883 8.21541 12.2785 8.30248 12.5687C8.47661 13.2362 8.76684 13.8747 9.14414 14.4842C9.40534 14.9486 9.69557 15.3839 10.0148 15.7902C11.0306 17.1833 12.3076 18.3733 13.7587 19.273C14.4843 19.7083 15.2969 20.1146 16.1096 20.3758C17.0383 20.666 17.8509 20.9853 18.8377 20.8112C19.8825 20.608 20.8983 19.9695 21.3046 18.9827C21.4207 18.6925 21.4788 18.3442 21.4207 18.054C21.2176 17.3575 20.3469 16.9802 19.8245 16.6609Z" fill="#F4F4F4"/>
</svg>
